<svg xmlns="http://www.w3.org/2000/svg" xmlns:xlink="http://www.w3.org/1999/xlink" width="106.111" height="108.709" viewBox="0 0 106.111 108.709">
  <defs>
    <linearGradient id="linear-gradient" y1="0.5" x2="1" y2="0.5" gradientUnits="objectBoundingBox">
      <stop offset="0.138" stop-color="#1b3244"/>
      <stop offset="0.946" stop-color="#555f69"/>
    </linearGradient>
    <linearGradient id="linear-gradient-2" x1="0.5" y1="1.316" x2="0.5" y2="-0.098" gradientUnits="objectBoundingBox">
      <stop offset="0" stop-color="#00a3e2"/>
      <stop offset="1" stop-color="#006ab4"/>
    </linearGradient>
    <linearGradient id="linear-gradient-3" x1="0.5" y1="0.987" x2="0.5" y2="-0.427" xlink:href="#linear-gradient-2"/>
  </defs>
  <g id="Symbole_48_9" data-name="Symbole 48 – 9" transform="translate(0 0)">
    <path id="Tracé_7281" data-name="Tracé 7281" d="M188.121,68.224a6.484,6.484,0,0,0-6.466-6.464H103.373a6.484,6.484,0,0,0-6.467,6.464v74.729a6.484,6.484,0,0,0,6.467,6.464h78.283a6.484,6.484,0,0,0,6.466-6.464Z" transform="translate(-96.906 -48.622)" fill="#7997af"/>
    <path id="Tracé_7282" data-name="Tracé 7282" d="M98.906,87.941v51.823a6.514,6.514,0,0,0,6.466,6.521h76.289a6.446,6.446,0,0,0,4.567-1.915c.074-.075.145-.15.214-.227a6.529,6.529,0,0,0,1.682-4.377V87.941Z" transform="translate(-96.911 -59.922)" fill="#edf7f7"/>
    <g id="Groupe_3941" data-name="Groupe 3941" transform="translate(1.995 13.197)">
      <g id="Groupe_33357" data-name="Groupe 33357">
        <g id="Groupe_3941-2" data-name="Groupe 3941">
          <g id="Groupe_3483" data-name="Groupe 3483">
            <g id="Groupe_158" data-name="Groupe 158">
              <g id="Groupe_157" data-name="Groupe 157">
                <g id="Groupe_153" data-name="Groupe 153">
                  <path id="Tracé_2385" data-name="Tracé 2385" d="M181.661,61.819H105.372a6.511,6.511,0,0,0-6.466,6.52V85.645h89.22V68.339A6.512,6.512,0,0,0,181.661,61.819Z" transform="translate(-98.906 -61.819)" fill="#1b3244"/>
                </g>
              </g>
            </g>
          </g>
        </g>
      </g>
    </g>
    <path id="Tracé_7283" data-name="Tracé 7283" d="M98.906,139.716a6.514,6.514,0,0,0,6.466,6.521h76.289a6.446,6.446,0,0,0,4.567-1.915c.074-.075.145-.15.214-.227a6.529,6.529,0,0,0,1.682-4.377V69.858" transform="translate(-96.911 -56.492)" fill="#7997af" opacity="0.2"/>
    <g id="Groupe_154" data-name="Groupe 154" transform="translate(10.082 36.163)">
      <rect id="Rectangle_644" data-name="Rectangle 644" width="6.25" height="6.25" transform="translate(44.126)" fill="#7997af"/>
      <rect id="Rectangle_645" data-name="Rectangle 645" width="6.25" height="6.25" transform="translate(55.156)" fill="#7997af"/>
      <rect id="Rectangle_646" data-name="Rectangle 646" width="6.25" height="6.25" transform="translate(66.188)" fill="#7997af"/>
      <rect id="Rectangle_647" data-name="Rectangle 647" width="6.25" height="6.25" transform="translate(0 11.076)" fill="#7997af"/>
      <rect id="Rectangle_648" data-name="Rectangle 648" width="6.25" height="6.25" transform="translate(11.032 11.076)" fill="#7997af"/>
      <rect id="Rectangle_649" data-name="Rectangle 649" width="6.25" height="6.25" transform="translate(22.062 11.076)" fill="#7997af"/>
      <rect id="Rectangle_650" data-name="Rectangle 650" width="6.25" height="6.25" transform="translate(33.094 11.076)" fill="#7997af"/>
      <rect id="Rectangle_651" data-name="Rectangle 651" width="6.25" height="6.25" transform="translate(44.126 11.076)" fill="#7997af"/>
      <rect id="Rectangle_652" data-name="Rectangle 652" width="6.25" height="6.25" transform="translate(55.156 11.076)" fill="#00a3e2"/>
      <rect id="Rectangle_653" data-name="Rectangle 653" width="6.25" height="6.25" transform="translate(66.188 11.076)" fill="#005795"/>
      <rect id="Rectangle_654" data-name="Rectangle 654" width="6.25" height="6.25" transform="translate(0 22.155)" fill="#7997af"/>
      <rect id="Rectangle_655" data-name="Rectangle 655" width="6.25" height="6.25" transform="translate(11.032 22.155)" fill="#7997af"/>
      <rect id="Rectangle_656" data-name="Rectangle 656" width="6.25" height="6.25" transform="translate(22.062 22.155)" fill="#7997af"/>
      <rect id="Rectangle_657" data-name="Rectangle 657" width="6.25" height="6.25" transform="translate(33.094 22.155)" fill="#7997af"/>
      <rect id="Rectangle_658" data-name="Rectangle 658" width="6.25" height="6.25" transform="translate(44.126 22.155)" fill="#7997af"/>
      <rect id="Rectangle_659" data-name="Rectangle 659" width="6.25" height="6.25" transform="translate(55.156 22.155)" fill="#7997af"/>
      <rect id="Rectangle_660" data-name="Rectangle 660" width="6.25" height="6.25" transform="translate(66.188 22.155)" fill="#7997af"/>
      <rect id="Rectangle_661" data-name="Rectangle 661" width="6.25" height="6.25" transform="translate(11.032 33.234)" fill="#7997af"/>
      <rect id="Rectangle_662" data-name="Rectangle 662" width="6.25" height="6.25" transform="translate(0 33.234)" fill="#7997af"/>
      <rect id="Rectangle_663" data-name="Rectangle 663" width="6.25" height="6.25" transform="translate(22.062 33.234)" fill="#00a3e2"/>
      <rect id="Rectangle_664" data-name="Rectangle 664" width="6.25" height="6.25" transform="translate(33.094 33.234)" fill="#00a3e2"/>
      <rect id="Rectangle_665" data-name="Rectangle 665" width="6.25" height="6.25" transform="translate(44.126 33.234)" fill="#005795"/>
      <rect id="Rectangle_666" data-name="Rectangle 666" width="6.25" height="6.25" transform="translate(55.156 33.234)" fill="#7997af"/>
      <rect id="Rectangle_667" data-name="Rectangle 667" width="6.25" height="6.25" transform="translate(66.188 33.234)" fill="#7997af"/>
    </g>
    <path id="Ellipse_92" data-name="Ellipse 92" d="M117.757,63.959a5.063,5.063,0,1,1-3.764,6.091A5.064,5.064,0,0,1,117.757,63.959Z" transform="translate(-97.08 -48.628)" fill="#edf7f7"/>
    <ellipse id="Ellipse_93" data-name="Ellipse 93" cx="4.593" cy="4.593" rx="4.593" ry="4.593" transform="translate(17.244 15.2)" fill="#edf7f7"/>
    <g id="Groupe_155" data-name="Groupe 155" transform="translate(18.341 0)">
      <path id="Tracé_2388" data-name="Tracé 2388" d="M118.924,48.587a3.5,3.5,0,0,0-3.491,3.491V68.116a3.5,3.5,0,0,0,3.491,3.491h0Z" transform="translate(-115.433 -48.587)" fill="#1b3244"/>
      <path id="Tracé_2389" data-name="Tracé 2389" d="M118.933,48.587v23.02a3.5,3.5,0,0,0,3.491-3.491V52.079A3.5,3.5,0,0,0,118.933,48.587Z" transform="translate(-115.442 -48.587)" fill="#7997af"/>
    </g>
    <ellipse id="Ellipse_94" data-name="Ellipse 94" cx="5.063" cy="5.062" rx="5.063" ry="5.062" transform="translate(55.521 15.201)" fill="#edf7f7"/>
    <path id="Ellipse_95" data-name="Ellipse 95" d="M168.011,63.945A4.592,4.592,0,1,1,164.6,69.47,4.593,4.593,0,0,1,168.011,63.945Z" transform="translate(-108.47 -48.628)" fill="#edf7f7"/>
    <g id="Groupe_156" data-name="Groupe 156" transform="translate(57.135 0)">
      <path id="Tracé_2390" data-name="Tracé 2390" d="M169.071,48.587a3.5,3.5,0,0,0-3.491,3.491V68.116a3.5,3.5,0,0,0,3.491,3.491h0Z" transform="translate(-165.58 -48.587)" fill="#1b3244"/>
      <path id="Tracé_2391" data-name="Tracé 2391" d="M169.08,48.587v23.02a3.5,3.5,0,0,0,3.491-3.491V52.079A3.5,3.5,0,0,0,169.08,48.587Z" transform="translate(-165.589 -48.587)" fill="#7997af"/>
    </g>
    <g id="Groupe_33362" data-name="Groupe 33362" transform="translate(53.781 16.285)">
      <ellipse id="Ellipse_205" data-name="Ellipse 205" cx="11.481" cy="1.786" rx="11.481" ry="1.786" transform="translate(0 88.852)" fill="#7997af" opacity="0.5"/>
      <ellipse id="Ellipse_206" data-name="Ellipse 206" cx="11.481" cy="1.786" rx="11.481" ry="1.786" transform="translate(27.736 88.852)" fill="#7997af" opacity="0.5"/>
      <path id="Tracé_7284" data-name="Tracé 7284" d="M192.1,123.93c0,1.476-1.54,2.673-3.44,2.673s-3.441-1.2-3.441-2.673,1.541-2.672,3.441-2.672S192.1,122.455,192.1,123.93Z" transform="translate(-170.625 -75.641)" fill="none" stroke="#555f69" stroke-miterlimit="10" stroke-width="1"/>
      <path id="Tracé_7285" data-name="Tracé 7285" d="M190.575,121.319c.173-1.235-1.3-3.095-1.3-3.095l.664-4.5h-2.766l-.419,4.469.244,3.159a1.357,1.357,0,0,0,.5.983,1.686,1.686,0,0,0,1.831.163l1.092-.547-.518-.222-.523-.177a.558.558,0,0,1,.831-.353Z" transform="translate(-170.629 -74.526)" fill="#f9c4c9"/>
      <path id="Tracé_7286" data-name="Tracé 7286" d="M197.01,69.615a4.357,4.357,0,0,1,2.647-4.225c3.817-1.629,8.5,1.018,10.382,6.616s8.158,7.65,10.333,9.67c2.9,2.7,3.969,7.889-2.7,9.619-4.155,1.079-3.664-1.272-8.3-.661s-13.386,0-14.71-4.072,2.223-5.893.693-9.322C193.753,73.636,194.026,69.984,197.01,69.615Z" transform="translate(-170.65 -64.916)" fill="url(#linear-gradient)"/>
      <path id="Tracé_7287" data-name="Tracé 7287" d="M214.849,83.592c-2.444-.59-2.214-2.653-3.095-4.1s-2.67-2.175-4.706-2.493c0,0-8.194.356-8.255,1.61s-.283,2.869-1.422,3.745-2.672,3.847-2.04,5.423c2.473,3.009,9.907,3.442,14.049,2.9,4.632-.61,4.141,1.74,8.3.661a7.165,7.165,0,0,0,4.148-2.433l.044-.063c.023-.031.043-.064.064-.1C223.916,85.678,217.281,84.182,214.849,83.592Z" transform="translate(-170.652 -64.948)" fill="#1b3244" opacity="0.2"/>
      <g id="Groupe_33358" data-name="Groupe 33358" transform="translate(40.561 15.523)">
        <path id="Tracé_7288" data-name="Tracé 7288" d="M213.343,100.149s-2.12-.885-1.392-3.666l2.637.808Z" transform="translate(-211.256 -84.604)" fill="#003a5d"/>
        <path id="Tracé_7289" data-name="Tracé 7289" d="M213.343,100.149s-2.12-.885-1.392-3.666l2.637.808Z" transform="translate(-211.256 -84.604)" fill="#1b3244" opacity="0.2"/>
        <path id="Tracé_7290" data-name="Tracé 7290" d="M211.885,84.572c1.812.67,6.8,6.929,8.328,9.119s3.156,3.817,2.748,5.395-9.619,1.032-9.619,1.032.37-2.482-1.392-3.666h5.108l-5.8-6.12Z" transform="translate(-211.255 -84.572)" fill="#003a5d"/>
      </g>
      <path id="Tracé_7291" data-name="Tracé 7291" d="M211.255,90.333l2.239,2.362-1.7-7.314Z" transform="translate(-170.694 -68.883)" fill="#1b3244" opacity="0.2"/>
      <path id="Tracé_7292" data-name="Tracé 7292" d="M192.275,85.548s-2.207,10.079-3.072,14-1.934,5.852-2.239,14.76c0,0,.916.712,3.308.2l5.446-22.871Z" transform="translate(-170.63 -69.948)" fill="#003a5d"/>
      <path id="Tracé_7293" data-name="Tracé 7293" d="M195.732,91.639l-3.443-6.091,2.232,11.177Z" transform="translate(-170.644 -69.066)" fill="#1b3244" opacity="0.2"/>
      <path id="Tracé_7294" data-name="Tracé 7294" d="M211.292,154.647v12.012l1,2.79a13.036,13.036,0,0,0,3.439,5.181l1.128,1.038-6.15-1.527a2.482,2.482,0,0,1-1.242-.793l-2-2.363-.041,3.632h-1.17l-.4-6.163a4.921,4.921,0,0,1,.785-3.118l1.333-2.038-1.222-8.653Z" transform="translate(-170.68 -85.342)" fill="#f9c4c9"/>
      <path id="Tracé_7295" data-name="Tracé 7295" d="M186.434,150.565l-3.817,12.927s-4.428,8.245-3.1,13.539a19.54,19.54,0,0,0,6.515-7.838l.1-5.4,5.955-13.233Z" transform="translate(-170.61 -85.331)" fill="#f9c4c9"/>
      <path id="Tracé_7296" data-name="Tracé 7296" d="M212.686,110.377s.077,32.294-.992,45.73h-6.108s-1.45-14.505,0-17.482l-1.755-19.315L192.1,153.861l-7.177-.687s5.065-13.252,6.413-19.054,2.8-18.475,6.006-23.742Z" transform="translate(-170.625 -78.722)" fill="#003a5d"/>
      <path id="Tracé_7297" data-name="Tracé 7297" d="M212.715,110.377H197.37a18.275,18.275,0,0,0-1.488,3.257c2.072.953,7,2.593,10.924-1.025a9.958,9.958,0,0,0,5.909.923C212.718,111.547,212.715,110.377,212.715,110.377Z" transform="translate(-170.654 -73.5)" fill="#1b3244" opacity="0.2"/>
      <path id="Tracé_7298" data-name="Tracé 7298" d="M199.46,72.843a9.98,9.98,0,0,0,7.594,4.141s-.519,3.646-2.249,5.478l.2,1.323,3.1.814L207.4,88.06h-9.467l-.509-3.41,2.494-.56.153-2.647a7.339,7.339,0,0,1-1.273-2.85s-1.73-.712-1.374-2.188,1.476-.356,1.476-.356Z" transform="translate(-170.658 -64.937)" fill="#f9c4c9"/>
      <path id="Tracé_7299" data-name="Tracé 7299" d="M207.845,84.543l-2.832-.742-.2-1.323c-3.954,1.711-6.006-3.869-6.006-3.869a7.339,7.339,0,0,0,1.273,2.85L200,82.7a8.146,8.146,0,0,0,4.166,3.24,3.053,3.053,0,0,0,3.321-.776Z" transform="translate(-170.661 -64.952)" fill="#1b3244" opacity="0.2"/>
      <path id="Tracé_7300" data-name="Tracé 7300" d="M198.446,86.647h9.165l-2.4,19.62Z" transform="translate(-170.66 -69.679)" fill="#fff"/>
      <g id="Groupe_33359" data-name="Groupe 33359" transform="translate(34.3 14.192)">
        <path id="Tracé_7301" data-name="Tracé 7301" d="M206.81,83.61l-1.832,19.036.661,8.347a20.664,20.664,0,0,0,7.991.509s-2.341-9.263-2.036-12.826.815-2.036.764-5.955-.49-8.151-.49-8.151Z" transform="translate(-204.978 -83.61)" fill="#003a5d"/>
      </g>
      <path id="Tracé_7302" data-name="Tracé 7302" d="M207.393,91.187c-.229-.992,1.145-1.335,1.412-3.664s-1.995-3.913-1.995-3.913l-1.832,19.035s3.52-6.147,3.553-7.908S207.622,92.18,207.393,91.187Z" transform="translate(-170.678 -68.988)" fill="#005795"/>
      <path id="Tracé_7303" data-name="Tracé 7303" d="M198.43,83.61l6.515,19.036,1.1,8.263s-5.888,3.188-9.91.643l1.036-4.885a13.544,13.544,0,0,0-.348-6.933l-4.538-14.191Z" transform="translate(-170.644 -69.463)" fill="#003a5d"/>
      <path id="Tracé_7304" data-name="Tracé 7304" d="M195.346,88.089c.228,1.947,2.787,2.138,2.862,3.894s-.725,3.626.725,5.535,6.019,5.127,6.019,5.127L198.438,83.61S195.117,86.142,195.346,88.089Z" transform="translate(-170.652 -68.988)" fill="#005795"/>
      <path id="Tracé_7305" data-name="Tracé 7305" d="M205.636,156.131h6.108c.153-1.917.282-4.22.391-6.757l-8.254-30.041,1.755,19.315C204.186,141.625,205.636,156.131,205.636,156.131Z" transform="translate(-170.675 -79.512)" fill="#1b3244" opacity="0.2"/>
      <path id="Tracé_7306" data-name="Tracé 7306" d="M212.114,96.631l-4.792-.129a2,2,0,0,0-1.258.4l-4.429,3.337a23.8,23.8,0,0,0,2.112,2.973c.594.524.923-1.409.923-1.409a6.272,6.272,0,0,0,2.949-2.891l5.722.391A3.62,3.62,0,0,0,212.114,96.631Z" transform="translate(-170.669 -71.01)" fill="#f9c4c9"/>
      <path id="Tracé_7307" data-name="Tracé 7307" d="M206.263,174.641h1.17l.041-3.632,2,2.363a2.482,2.482,0,0,0,1.242.793l6.15,1.527-1.128-1.038a13.033,13.033,0,0,1-3.233-4.661,2.524,2.524,0,0,1-2.968-.454c-1.947-1.679-1.549-6.215-1.549-6.215l-1.333,2.038a4.921,4.921,0,0,0-.785,3.118Z" transform="translate(-170.68 -85.365)" fill="#005795"/>
      <path id="Tracé_7308" data-name="Tracé 7308" d="M182.245,169.508c-.729,0-1.377-.562-1.51-1.666-1.012,2.8-1.923,6.423-1.223,9.224a19.541,19.541,0,0,0,6.515-7.838l.1-5.4S184.612,169.508,182.245,169.508Z" transform="translate(-170.61 -85.366)" fill="#005795"/>
      <path id="Tracé_7309" data-name="Tracé 7309" d="M207.724,97.425a2.4,2.4,0,0,1,0,1.5l.668.046a3.579,3.579,0,0,0,0-1.584Z" transform="translate(-170.685 -70.89)" fill="#005795"/>
      <g id="Groupe_33360" data-name="Groupe 33360" transform="translate(36.469 25.584)">
        <path id="Tracé_7310" data-name="Tracé 7310" d="M208.389,96.5a.709.709,0,1,1-1.064-.031A.756.756,0,0,1,208.389,96.5Z" transform="translate(-207.153 -96.263)" fill="#003a5d"/>
        <path id="Tracé_7311" data-name="Tracé 7311" d="M208.216,96.686a.452.452,0,1,1-.679-.02A.482.482,0,0,1,208.216,96.686Z" transform="translate(-207.154 -96.264)" fill="#fff"/>
      </g>
      <g id="Groupe_33361" data-name="Groupe 33361" transform="translate(7.81 46.54)">
        <rect id="Rectangle_13055" data-name="Rectangle 13055" width="20.455" height="13.933" fill="url(#linear-gradient-2)"/>
        <path id="Tracé_7312" data-name="Tracé 7312" d="M178.417,123.581l10.227,6.966,10.227-6.966Z" transform="translate(-178.417 -123.581)" fill="url(#linear-gradient-3)"/>
      </g>
    </g>
  </g>
</svg>
