<svg xmlns="http://www.w3.org/2000/svg" xmlns:xlink="http://www.w3.org/1999/xlink" width="160.885" height="108.713" viewBox="0 0 160.885 108.713"><defs><linearGradient id="a" x1="113.682" y1="358.837" x2="112.387" y2="359.491" gradientUnits="objectBoundingBox"><stop offset="0" stop-color="#004b63"/><stop offset="1" stop-color="#80A9F5"/></linearGradient><linearGradient id="b" x1="119.161" y1="190.476" x2="117.813" y2="190.823" xlink:href="#a"/><linearGradient id="c" x1="0.469" y1="0.193" x2="0.629" y2="1.107" xlink:href="#a"/><linearGradient id="d" x1="0.354" y1="-0.491" x2="0.659" y2="1.648" xlink:href="#a"/><linearGradient id="e" x1="0.475" y1="0.392" x2="0.738" y2="2.134" xlink:href="#a"/><clipPath id="f"><path d="M99.837,97.257c-.717-.714-2.177,1.962-3.133,4.006-.161-.717-.407-1.328-.84-1.257s-.222,2.429-.183,2.826a2.886,2.886,0,0,0,.111.608c0,.026-.013.052-.015.077-1.337,1.583-6.489,6-7.569,7.758-1.94-.552-5.426-1.836-9.784-3.156a1.863,1.863,0,0,0-.652-.034,13.557,13.557,0,0,0-3.214-.568c-.009-.278-.014-.548-.016-.8a3.469,3.469,0,0,0,2.467-2.562,16.179,16.179,0,0,0,.441-3.1,3.152,3.152,0,0,0,.2-.532c.225-.771.576-3.132-.148-4.069a2.159,2.159,0,0,0-1.1-3.869c-1.343,0-.37.317-1.459.755-.545.22-6.522.43-5.571,2.048-.457.073-.825.445-1.067,1.344a5.273,5.273,0,0,0-.3,2.693.524.524,0,0,0-.216.036c-.492.2-.58,1.116-.2,2.047a2.162,2.162,0,0,0,1.23,1.341,3.477,3.477,0,0,0,1.162,2.185c-.064.78-.132,1.7-.176,2.6-.574.076-1.15.178-1.682.278a7.576,7.576,0,0,0-1.383.391,2.614,2.614,0,0,0-1,.517,4.207,4.207,0,0,0-1.529,1.727c-.612.767-1.4,1.834-2.464,3.466-3.119,4.788-3.848,7.021-4.015,8.051a.6.6,0,0,0,.01.235,1.032,1.032,0,0,0,.087.4c1.2,2.672,1.732,3.647,4.874,6.913a29.12,29.12,0,0,0,3.025,2.992c-.054.488.261.829.78,1a.922.922,0,0,0,.566.016,31.608,31.608,0,0,1-.09,3.249,25.9,25.9,0,0,0-.575,5.77c-.273,2.384-1.5,19.56-1.936,22.724-.017.126-.028.244-.041.365l-.005.009c-2.435,5.423-2.241,22.759-2.111,26.219.006.181.051.274.118.317a2.381,2.381,0,0,0-.038.663,6.531,6.531,0,0,1-.457,2.283c-.406,1.293,1.011,1.451,3.4,1.4,2.234-.043,1.662-.9,1.3-1.443-.331-.487-.9-.7-1-1.3a12.537,12.537,0,0,0-.148-1.253v0c.514-4.713,3.526-19.363,4.8-24.5a6.33,6.33,0,0,0,.182-1.346c1.578-5.337,4.014-14.444,4.609-18.354.78,4.388,2.579,14.286,3.86,18.907-1.694,6.468,1.5,19.688,1.7,27.3l.006-.009c-.008.047-.021.091-.027.14-.181,1.448-.17,1.527,1.171,1.535a18.332,18.332,0,0,1,2.719.157,9.144,9.144,0,0,0,4.029-.052c1.461-.466-1.17-.715-2.411-1.246a5.564,5.564,0,0,1-2.324-1.683,1.046,1.046,0,0,0-.2-.26c-.1-10.122,1.059-20.2,1.288-25.432a6.613,6.613,0,0,0-.02-.883,11.636,11.636,0,0,0-.023-1.572c-.187-2.363-.6-12.473-.86-18.51h0a91.9,91.9,0,0,0-.6-9.96s-.083-13.044-.965-21.61c4.667.959,6.8.9,7.8.722a.965.965,0,0,0,.878-.308,37.647,37.647,0,0,0,4.975-7.1c1.209-2.077,1.538-3.093,1.58-4.05a3.739,3.739,0,0,0,2.55-2.476C100.491,101.142,101,98.419,99.837,97.257Z" transform="translate(-57.732 -92.578)" fill="none"/></clipPath><linearGradient id="g" x1="149.873" y1="-61.407" x2="151.64" y2="-60.944" gradientUnits="objectBoundingBox"><stop offset="0.138" stop-color="#80A9F5"/><stop offset="0.946" stop-color="#CCE7FF"/></linearGradient><linearGradient id="h" x1="1534.838" y1="68.997" x2="1533.294" y2="70.335" gradientUnits="objectBoundingBox"><stop offset="0" stop-color="#a9becd"/><stop offset="1" stop-color="#1b3244"/></linearGradient><linearGradient id="i" x1="581.487" y1="516.039" x2="581.221" y2="517.503" xlink:href="#a"/><linearGradient id="j" x1="0.408" y1="0.781" x2="0.757" y2="-0.157" xlink:href="#a"/><linearGradient id="k" x1="-21.842" y1="0.149" x2="-21.907" y2="1.153" gradientUnits="objectBoundingBox"><stop offset="0.138" stop-color="#1b3244"/><stop offset="0.946" stop-color="#555f69"/></linearGradient><linearGradient id="l" x1="-22.5" y1="0.149" x2="-22.565" y2="1.153" xlink:href="#k"/><linearGradient id="m" x1="1585.597" y1="-79.679" x2="1585.884" y2="-80.897" xlink:href="#k"/><linearGradient id="n" x1="2026.47" y1="97.304" x2="2024.519" y2="98.749" xlink:href="#a"/><linearGradient id="o" x1="133.578" y1="282.217" x2="133.012" y2="283.815" xlink:href="#a"/><linearGradient id="p" x1="902.099" y1="-153.435" x2="902.263" y2="-155.783" xlink:href="#k"/><linearGradient id="q" x1="2853.118" y1="-183.489" x2="2853.634" y2="-186.296" xlink:href="#k"/><linearGradient id="r" x1="961.466" y1="-75.954" x2="961.64" y2="-77.117" xlink:href="#k"/><linearGradient id="s" x1="-0.521" y1="1.843" x2="0.724" y2="0.244" xlink:href="#a"/><linearGradient id="t" x1="-0.59" y1="3.648" x2="0.587" y2="0.212" xlink:href="#a"/><linearGradient id="u" x1="-0.225" y1="1.869" x2="0.572" y2="0.333" xlink:href="#a"/><linearGradient id="v" x1="-1.29" y1="2.689" x2="1.042" y2="-0.085" xlink:href="#a"/><linearGradient id="w" x1="-1.055" y1="5.091" x2="0.415" y2="0.814" xlink:href="#a"/><clipPath id="x"><path d="M204.783,146.742a41.074,41.074,0,0,0-.842-5.9,2.124,2.124,0,0,0-.743-1.307,5.547,5.547,0,0,0-3.612-1.305c-.016-.442-.036-.886-.057-1.317,1.391-.578,3.448-1.7,3.713-3.357.395-2.477-.944-11.469-9.377-9.873-.064.012-.129.026-.193.04-.136.028-.268.05-.408.083l.021.021a4.338,4.338,0,0,0-1.606.911,5.17,5.17,0,0,0-1.912,2.391,5.738,5.738,0,0,0,.144,2.8c.566,3.385,1.137,8.121.908,9.083a12.917,12.917,0,0,0,2.907-1.282,2.4,2.4,0,0,0,1.651.275,5.727,5.727,0,0,0,.587-.166c0,.154-.005.31-.009.469l-.9.076a8.283,8.283,0,0,0-1.362.191,4.2,4.2,0,0,0-2.24,1.374,9.871,9.871,0,0,0-1.17,2.44A15.684,15.684,0,0,1,188.6,145.3H178.358a1.27,1.27,0,0,0-1.139,1.833l.081.163c.008.016.009.032.017.048l1.026,2.075c-.261.016-.448.107-.485.231a2.4,2.4,0,0,0,.356,1.976,1.947,1.947,0,0,0,.494.305.928.928,0,0,0,.068.216c.2.409.581.489,1.245.666l.531,1.073a1.233,1.233,0,0,0,1.106.686h2.417a20.9,20.9,0,0,0,5.025,1.817,70.746,70.746,0,0,1-1.624,9.429c-4.62-3.32-11.321-8.118-12.941-9.369-2.054-1.585-3.46-1.811-4.349-1.4-1.631.31-2.529,2.091-.842,4.5,2.828,4.044,6.454,7.324,11.494,15.42a6.3,6.3,0,0,1-1.44.894c-1.108.495-3.457.727-2.152,1.162a4.8,4.8,0,0,0,1.224.223c-1.726.967-3.259,1.829-4.365,2.427a2.192,2.192,0,0,0-.844.958,6.485,6.485,0,0,0-.675.955c-2.481,4.253-10.328,15.786-13.031,19.292a6.027,6.027,0,0,1-2.143-.119c-1.182-.276-3.192-1.511-2.417-.375a7.8,7.8,0,0,0,2.835,2.212,15.783,15.783,0,0,1,2.021,1.352c.958.717,1.01.665,1.7-.51a2.163,2.163,0,0,0,.3-.963c.077.038.176.014.323-.129,2.265-2.214,13.372-13.163,15.612-18.458.111-.036.219-.068.335-.109,2.874-1.012,19-5.567,20.535-6.1a7.622,7.622,0,0,0,2.178-1.129c1.232-.716,2.619-2.811,1-8.927-.036-.343-.818-3.55-.909-3.947-.242-1.049-.452-2.107-.6-3.175a18.155,18.155,0,0,1-.035-5.228c.495.412,1.039.831,1.708,1.338a1.787,1.787,0,0,0,2.342-.133.946.946,0,0,0,.355-.522C204.968,154.886,205.272,152.436,204.783,146.742Zm-3.758,4.648c.014.092.029.187.043.277l-.092-.072C200.991,151.527,201.009,151.459,201.025,151.39Zm-16.373,22.445q-.413.224-.83.453-.6-1.023-1.155-2.105c.234.213.449.409.644.583A15.2,15.2,0,0,0,184.652,173.835Z" transform="translate(-154.823 -123.496)" fill="none"/></clipPath><linearGradient id="y" x1="-1.853" y1="33.282" x2="-0.585" y2="33.764" xlink:href="#k"/></defs><g transform="translate(0)"><g transform="translate(35.818 4.063)"><path d="M204.5,161.368H98.3V99.587a2.47,2.47,0,0,1,2.467-2.467H202.028a2.471,2.471,0,0,1,2.467,2.467v61.781Z" transform="translate(-90.165 -97.12)" fill="#1b3244"/><g transform="translate(14.89 5.046)"><rect width="92.691" height="54.158" fill="#edf7f7"/></g><g transform="translate(0 63.153)"><path d="M97.34,168.594l-8.1,23.11a.632.632,0,0,0-.038.224.555.555,0,0,0,.556.544l123.946-.011a.558.558,0,0,0,.556-.506v-.066a.517.517,0,0,0-.044-.217l-10.672-23.077ZM202.437,179H188.31a.33.33,0,0,1-.32-.242l-.851-3.057a.347.347,0,0,1,.011-.213l-.011-.048a.334.334,0,0,1,.32-.426h13.816a.34.34,0,0,1,.31.213l1.16,3.057a.316.316,0,0,1,0,.242v.016a.329.329,0,0,1-.31.458Zm-22.607,4.572a.316.316,0,0,1-.016.191l.016.077a.334.334,0,0,1-.258.4.352.352,0,0,1-.069.007h-8.222a.329.329,0,0,1-.327-.278l-.487-3.051a.335.335,0,0,1,.016-.163l-.016-.1a.335.335,0,0,1,.278-.383.3.3,0,0,1,.049,0l8.046-.012a.333.333,0,0,1,.327.261Zm-12.448.038a.369.369,0,0,1-.016.153l.016.109a.328.328,0,0,1-.277.372.312.312,0,0,1-.05,0h-8.232a.336.336,0,0,1-.332-.305l-.243-3.051a.271.271,0,0,1,.011-.114l-.011-.154a.334.334,0,0,1,.3-.363h.032l8.052-.011a.337.337,0,0,1,.332.289Zm-12.455.038a.246.246,0,0,1-.011.092l.011.169a.33.33,0,0,1-.311.349h-.021l-8.232.011a.331.331,0,0,1-.332-.329v-3.32a.33.33,0,0,1,.329-.332h0l8.057-.012a.335.335,0,0,1,.332.317Zm-58.705-.033,1-3.045a.336.336,0,0,1,.316-.229l11.942-.011h8.3a.333.333,0,0,1,.332.334.329.329,0,0,1-.005.059l-.015.088a.311.311,0,0,1,.015.174l-.573,3.046a.332.332,0,0,1-.327.272h-8.642l-12.032.011a.332.332,0,0,1-.334-.33.348.348,0,0,1,.017-.106l.012-.027a.421.421,0,0,1,0-.235Zm1.7-5.2,1-3.045a.334.334,0,0,1,.316-.229h13.947a.337.337,0,0,1,.335.339.308.308,0,0,1-.008.07l-.015.07a.326.326,0,0,1,.015.191l-.692,3.045a.332.332,0,0,1-.327.261H98.237a.332.332,0,0,1-.333-.33.326.326,0,0,1,.017-.106l.011-.027a.331.331,0,0,1,0-.234ZM112.3,169.94l7.435-.012a.334.334,0,0,1,.333.334.323.323,0,0,1-.005.059l-.016.088a.32.32,0,0,1,.016.174l-.567,3.046a.334.334,0,0,1-.327.272l-7.616.011a.329.329,0,0,1-.332-.327.324.324,0,0,1,.012-.088l.015-.059a.314.314,0,0,1-.015-.2l.752-3.045a.325.325,0,0,1,.322-.251Zm64.6.163.665,3.057a.323.323,0,0,1-.015.191l.015.076a.334.334,0,0,1-.258.4.3.3,0,0,1-.069.007l-7.622.012a.33.33,0,0,1-.327-.278l-.486-3.051a.329.329,0,0,1,.015-.164l-.015-.1a.333.333,0,0,1,.277-.382.451.451,0,0,1,.049,0l7.443-.011a.313.313,0,0,1,.334.251Zm-4.216,8.281a.3.3,0,0,1-.016.169l.016.092a.334.334,0,0,1-.268.387.328.328,0,0,1-.059.005l-7.927.011a.336.336,0,0,1-.331-.294l-.365-3.051a.3.3,0,0,1,.016-.142l-.016-.122a.333.333,0,0,1,.3-.363h.032l7.747-.012a.329.329,0,0,1,.327.273Zm-32.667.343v-.18a.208.208,0,0,1,0-.081l.132-3.051a.328.328,0,0,1,.332-.317l7.758-.011a.334.334,0,0,1,.332.327l.044,3.051v.265a.332.332,0,0,1-.326.337h-.006l-7.932.011a.346.346,0,0,1-.327-.352Zm12.041.015-.115-3.051v-.261a.33.33,0,0,1,.316-.343h.016l7.752-.011a.333.333,0,0,1,.332.3l.293,3.051a.307.307,0,0,1-.011.121l.011.137a.335.335,0,0,1-.305.363h-.027l-7.932.011a.331.331,0,0,1-.322-.316Zm13.484-8.6.414,3.051a.369.369,0,0,1-.016.153l.016.11a.329.329,0,0,1-.277.372.469.469,0,0,1-.05,0l-7.627.011a.329.329,0,0,1-.332-.305l-.242-3.051a.275.275,0,0,1,.011-.115l-.011-.152a.333.333,0,0,1,.3-.363h.032l7.452-.012a.344.344,0,0,1,.336.3Zm-11.365.044.169,3.051a.247.247,0,0,1-.012.092l.012.169a.332.332,0,0,1-.312.349h-.02l-7.633.011a.331.331,0,0,1-.332-.329v-3.32a.331.331,0,0,1,.329-.332h0l7.453-.012a.35.35,0,0,1,.349.323Zm-26.194,8.265.382-3.045a.336.336,0,0,1,.332-.294l7.752-.011a.335.335,0,0,1,.332.338v.015l-.012.163a.577.577,0,0,1,.012.1l-.2,3.051a.334.334,0,0,1-.332.311l-7.927.011a.335.335,0,0,1-.334-.337c0-.013,0-.026,0-.038l.016-.122a.278.278,0,0,1-.014-.143Zm-3-2.69-.452,3.045a.331.331,0,0,1-.327.284l-7.92.011a.33.33,0,0,1-.334-.327.3.3,0,0,1,.006-.07l.016-.081a.344.344,0,0,1-.016-.185l.626-3.045a.338.338,0,0,1,.327-.267l7.748-.012a.337.337,0,0,1,.335.339.343.343,0,0,1,0,.043l-.016.1a.557.557,0,0,1,.016.164Zm-3.546,8.53a.332.332,0,0,1-.332-.332.288.288,0,0,1,.005-.055l.015-.1a.325.325,0,0,1-.015-.163l.5-3.045a.329.329,0,0,1,.327-.278L130,180.31a.335.335,0,0,1,.334.335l0,.03-.016.131a.5.5,0,0,1,.016.136L130,183.988a.332.332,0,0,1-.332.3Zm12.128-.364.011-.148a.271.271,0,0,1-.011-.114l.256-3.051a.334.334,0,0,1,.332-.305l8.057-.011a.332.332,0,0,1,.332.334v.27l-.076,3.051a.341.341,0,0,1-.332.327h-8.232a.335.335,0,0,1-.333-.335v-.023Zm42.905-4.887a.338.338,0,0,1-.327-.267l-.607-3.057a.333.333,0,0,1,.015-.18l-.015-.081a.33.33,0,0,1,.257-.39.308.308,0,0,1,.07-.007l7.737-.011a.33.33,0,0,1,.32.25l.79,3.056a.334.334,0,0,1-.015.207l.015.055a.328.328,0,0,1-.233.4.323.323,0,0,1-.088.012Zm23.136-9.016,1.161,3.057a.319.319,0,0,1,0,.243v.015a.334.334,0,0,1-.311.453l-7.589.011a.328.328,0,0,1-.316-.228l-.981-3.057a.3.3,0,0,1,.012-.229l-.012-.032a.335.335,0,0,1,.216-.42.318.318,0,0,1,.1-.016l7.414-.011a.329.329,0,0,1,.31.21Zm-19.1-.184,7.431-.012a.338.338,0,0,1,.321.243l.911,3.057a.349.349,0,0,1-.012.224l.012.038a.334.334,0,0,1-.225.416.32.32,0,0,1-.092.014l-7.6.011a.326.326,0,0,1-.321-.256l-.735-3.057a.314.314,0,0,1,.016-.2l-.016-.065a.327.327,0,0,1,.226-.4.318.318,0,0,1,.092-.013Zm-37.689.4v.261l-.077,3.051a.339.339,0,0,1-.332.327l-7.627.012a.333.333,0,0,1-.333-.333v-.032l.012-.147a.277.277,0,0,1-.012-.115l.257-3.051a.332.332,0,0,1,.332-.305l7.453-.011a.331.331,0,0,1,.328.333v0Zm-11.375.044-.016.131a.541.541,0,0,1,.016.137l-.327,3.045a.333.333,0,0,1-.332.3l-7.628.011a.328.328,0,0,1-.331-.327.266.266,0,0,1,0-.06l.016-.1a.336.336,0,0,1-.016-.163l.5-3.046a.333.333,0,0,1,.327-.278l7.447-.011a.323.323,0,0,1,.342.3.3.3,0,0,1,0,.056Zm-31.817,2.952,1-3.046a.334.334,0,0,1,.317-.228l7.425-.011a.331.331,0,0,1,.333.33.325.325,0,0,1-.012.089l-.016.055a.348.348,0,0,1,.016.213l-.823,3.046a.326.326,0,0,1-.32.242H99.946a.332.332,0,0,1-.333-.33.326.326,0,0,1,.017-.106l.011-.027a.346.346,0,0,1-.012-.233Zm4.862,12.982-.823,3.045a.328.328,0,0,1-.321.243H94.835a.332.332,0,0,1-.333-.331.326.326,0,0,1,.017-.106l.011-.027a.317.317,0,0,1-.011-.234l1-3.045a.335.335,0,0,1,.316-.229h8.33a.332.332,0,0,1,.332.331.294.294,0,0,1-.012.089l-.015.055a.3.3,0,0,1,.021.206Zm12.64-.033-.573,3.046a.333.333,0,0,1-.327.272h-8.521a.33.33,0,0,1-.332-.327.362.362,0,0,1,.011-.088l.016-.06a.352.352,0,0,1-.016-.2l.752-3.046a.332.332,0,0,1,.321-.25H116.8a.333.333,0,0,1,.332.334.33.33,0,0,1-.005.059l-.016.088a.26.26,0,0,1,.021.17Zm63.833,2.866a.333.333,0,0,1-.258.4.3.3,0,0,1-.069.008H133.093l-12.52.011a.332.332,0,0,1-.331-.332.364.364,0,0,1,0-.055l.016-.1a.337.337,0,0,1-.016-.163l.5-3.046a.333.333,0,0,1,.327-.278l12.324-.011h46.558a.333.333,0,0,1,.327.261l.665,3.057a.316.316,0,0,1-.016.191Zm2.462-5.062-.726-3.06a.326.326,0,0,1,.016-.2l-.016-.065a.333.333,0,0,1,.25-.4.32.32,0,0,1,.072-.009h8.287l11.952-.011a.337.337,0,0,1,.311.213l1.16,3.057a.316.316,0,0,1,0,.242v.016a.333.333,0,0,1-.191.43.341.341,0,0,1-.119.021l-12.008.012h-8.655a.327.327,0,0,1-.329-.249Zm10.406,5.029a.335.335,0,0,1-.226.416.341.341,0,0,1-.094.014H185a.327.327,0,0,1-.32-.257l-.735-3.057a.311.311,0,0,1,.016-.2l-.016-.066a.332.332,0,0,1,.249-.4.287.287,0,0,1,.072-.009H192.6a.337.337,0,0,1,.32.243l.911,3.056a.348.348,0,0,1-.011.224Zm12.868-.033a.334.334,0,0,1-.192.43.354.354,0,0,1-.118.022h-8.494a.329.329,0,0,1-.316-.229l-.981-3.057a.3.3,0,0,1,.011-.228l-.011-.033a.335.335,0,0,1,.216-.42.344.344,0,0,1,.1-.015h8.318a.338.338,0,0,1,.311.212l1.16,3.057a.328.328,0,0,1,0,.25Z" transform="translate(-89.207 -168.594)" fill="#7997af"/><path d="M104.578,188.136H96.216a.336.336,0,0,0-.318.23l-1,3.065a.317.317,0,0,0,.011.236.334.334,0,0,0,.307.2h8.542a.333.333,0,0,0,.322-.244l.809-3,.016-.055a.332.332,0,0,0-.221-.416A.336.336,0,0,0,104.578,188.136Z" transform="translate(-89.804 -170.653)" fill="#1b3244"/><path d="M118.8,188.124h-8.375a.328.328,0,0,0-.322.251l-.76,3.068a.316.316,0,0,0,.015.2.335.335,0,0,0,.311.213h8.555a.334.334,0,0,0,.328-.273l.557-2.97.016-.088a.338.338,0,0,0-.266-.4A.343.343,0,0,0,118.8,188.124Z" transform="translate(-91.327 -170.652)" fill="#1b3244"/><path d="M184.733,191.395l-.668-3.069a.334.334,0,0,0-.328-.262l-59.118.011a.335.335,0,0,0-.328.279l-.5,3.059a.316.316,0,0,0,.016.163.331.331,0,0,0,.311.225l60.3-.011a.341.341,0,0,0,.312-.214A.407.407,0,0,0,184.733,191.395Z" transform="translate(-92.85 -170.645)" fill="#1b3244"/><path d="M205.176,191.36l-.913-3.07a.341.341,0,0,0-.323-.244h-8.368a.329.329,0,0,0-.333.324.356.356,0,0,0,.011.087l.015.065.723,3a.338.338,0,0,0,.322.258h8.542a.331.331,0,0,0,.307-.208A.274.274,0,0,0,205.176,191.36Z" transform="translate(-100.379 -170.643)" fill="#1b3244"/><path d="M219.6,191.325l-1.166-3.07a.329.329,0,0,0-.311-.214h-8.352a.335.335,0,0,0-.335.335.364.364,0,0,0,.017.1l.011.033.976,3.036a.337.337,0,0,0,.318.229h8.528a.332.332,0,0,0,.306-.2A.308.308,0,0,0,219.6,191.325Z" transform="translate(-101.875 -170.643)" fill="#1b3244"/><path d="M97.127,186.039l12.082-.011h8.671a.335.335,0,0,0,.328-.274l.558-2.97.015-.088a.331.331,0,0,0-.263-.388.315.315,0,0,0-.064-.006h-8.33l-11.99.012a.335.335,0,0,0-.318.229l-1,3.058a.334.334,0,0,0,.214.422.36.36,0,0,0,.1.016Z" transform="translate(-90.007 -170.038)" fill="#1b3244"/><path d="M125.074,186.015h8.259a.34.34,0,0,0,.333-.3l.313-2.929.015-.131a.334.334,0,0,0-.3-.365l-.032,0-8.085.012a.333.333,0,0,0-.328.279l-.5,3.058a.318.318,0,0,0,.016.164A.33.33,0,0,0,125.074,186.015Z" transform="translate(-92.951 -170.037)" fill="#1b3244"/><path d="M139.056,186h8.266a.334.334,0,0,0,.333-.328l.071-2.834v-.229a.337.337,0,0,0-.329-.344h0l-8.089.012a.335.335,0,0,0-.334.306l-.257,3.063a.248.248,0,0,0,.011.115A.335.335,0,0,0,139.056,186Z" transform="translate(-94.423 -170.034)" fill="#1b3244"/><path d="M161.14,182.248l-8.089.011a.333.333,0,0,0-.334.331v3.065h0a.333.333,0,0,0,.331.334h8.267a.331.331,0,0,0,.323-.258.542.542,0,0,0,.011-.093l-.17-3.063A.336.336,0,0,0,161.14,182.248Z" transform="translate(-95.899 -170.033)" fill="#1b3244"/><path d="M174.838,182.23l-8.085.011a.331.331,0,0,0-.335.329.178.178,0,0,0,0,.038l.011.152.229,2.91a.33.33,0,0,0,.334.307h8.265a.337.337,0,0,0,.318-.23.373.373,0,0,0,.016-.154l-.416-3.062A.356.356,0,0,0,174.838,182.23Z" transform="translate(-97.342 -170.031)" fill="#1b3244"/><path d="M188.542,182.218l-8.079.011a.333.333,0,0,0-.333.334.369.369,0,0,0,0,.055l.016.1.47,2.965a.324.324,0,0,0,.328.279H189.2a.342.342,0,0,0,.311-.214.319.319,0,0,0,.016-.191l-.667-3.069A.333.333,0,0,0,188.542,182.218Z" transform="translate(-98.787 -170.029)" fill="#1b3244"/><path d="M194.585,185.69a.339.339,0,0,0,.322.258h8.69l12.055-.012a.332.332,0,0,0,.306-.2.313.313,0,0,0,0-.244l-1.165-3.069a.331.331,0,0,0-.311-.214l-12,.011h-8.32a.329.329,0,0,0-.333.324.342.342,0,0,0,.011.086l.015.066Z" transform="translate(-100.23 -170.028)" fill="#1b3244"/><path d="M99.034,180.206h14.31a.339.339,0,0,0,.328-.262l.679-2.986.015-.071a.335.335,0,0,0-.328-.411h-14a.335.335,0,0,0-.317.23l-1,3.058a.315.315,0,0,0,.011.235A.323.323,0,0,0,99.034,180.206Z" transform="translate(-90.207 -169.424)" fill="#1b3244"/><path d="M127.693,176.452l-7.778.011a.333.333,0,0,0-.328.268l-.629,3.059a.363.363,0,0,0,.016.185.334.334,0,0,0,.311.218l7.953-.011a.33.33,0,0,0,.327-.285l.438-2.953.016-.1a.332.332,0,0,0-.327-.389Z" transform="translate(-92.341 -169.422)" fill="#1b3244"/><path d="M132.791,180.169l7.959-.012a.335.335,0,0,0,.334-.311l.191-2.9.011-.163a.337.337,0,0,0-.318-.355h-.015l-7.783.011a.338.338,0,0,0-.334.3l-.383,3.058a.344.344,0,0,0,.016.148A.35.35,0,0,0,132.791,180.169Z" transform="translate(-93.763 -169.419)" fill="#1b3244"/><path d="M146.295,180.162l7.964-.012a.327.327,0,0,0,.328-.317v-.022l-.044-3.063a.334.334,0,0,0-.334-.327l-7.79.011a.331.331,0,0,0-.333.317l-.132,3.063a.421.421,0,0,0,0,.082A.339.339,0,0,0,146.295,180.162Z" transform="translate(-95.186 -169.419)" fill="#1b3244"/><path d="M159.461,179.812a.332.332,0,0,0,.333.322l7.964-.011a.328.328,0,0,0,.317-.244.31.31,0,0,0,.012-.122l-.3-3.063a.334.334,0,0,0-.334-.3l-7.783.012a.333.333,0,0,0-.333.335v.222Z" transform="translate(-96.597 -169.416)" fill="#1b3244"/><path d="M180.689,176.378l-7.779.012a.333.333,0,0,0-.335.334c0,.011,0,.021,0,.032l.016.122.35,2.942a.337.337,0,0,0,.333.3l7.96-.011a.328.328,0,0,0,.311-.218.3.3,0,0,0,.015-.17l-.541-3.07A.347.347,0,0,0,180.689,176.378Z" transform="translate(-97.991 -169.414)" fill="#1b3244"/><path d="M186.433,179.839a.335.335,0,0,0,.328.269l7.948-.012a.324.324,0,0,0,.307-.208.336.336,0,0,0,.015-.208l-.793-3.069a.333.333,0,0,0-.322-.251l-7.768.011a.335.335,0,0,0-.335.335.391.391,0,0,0,.006.064l.016.082Z" transform="translate(-99.386 -169.412)" fill="#1b3244"/><path d="M200.011,180.1h14.183a.332.332,0,0,0,.306-.2.318.318,0,0,0,0-.243l-1.165-3.07a.332.332,0,0,0-.311-.214H199.153a.339.339,0,0,0-.335.343.345.345,0,0,0,.013.085l.011.048.842,3.019A.341.341,0,0,0,200.011,180.1Z" transform="translate(-100.756 -169.413)" fill="#1b3244"/><path d="M100.948,174.379l7.631-.011a.336.336,0,0,0,.322-.244l.809-3,.016-.055a.337.337,0,0,0-.24-.411.364.364,0,0,0-.082-.011l-7.455.011a.337.337,0,0,0-.318.23l-1,3.058a.315.315,0,0,0,.012.235A.327.327,0,0,0,100.948,174.379Z" transform="translate(-90.409 -168.81)" fill="#1b3244"/><path d="M113.649,173.945a.317.317,0,0,0,.015.2.335.335,0,0,0,.311.213l7.646-.011a.335.335,0,0,0,.328-.273l.558-2.971.015-.088a.331.331,0,0,0-.264-.388.3.3,0,0,0-.064-.005l-7.466.011a.328.328,0,0,0-.322.251Z" transform="translate(-91.781 -168.808)" fill="#1b3244"/><path d="M127.176,170.9l-.5,3.058a.33.33,0,0,0,.015.164.333.333,0,0,0,.311.225l7.658-.012a.342.342,0,0,0,.333-.3l.311-2.928.015-.132a.338.338,0,0,0-.309-.365h-.024l-7.476.012A.364.364,0,0,0,127.176,170.9Z" transform="translate(-93.154 -168.806)" fill="#1b3244"/><path d="M139.96,170.9l-.258,3.062a.281.281,0,0,0,.011.115.33.33,0,0,0,.322.243l7.658-.011a.335.335,0,0,0,.333-.328l.071-2.833v-.23a.336.336,0,0,0-.329-.344h0l-7.484.011A.337.337,0,0,0,139.96,170.9Z" transform="translate(-94.527 -168.803)" fill="#1b3244"/><path d="M152.743,170.908v3.063h0a.331.331,0,0,0,.331.333h0l7.663-.011a.33.33,0,0,0,.322-.258.53.53,0,0,0,.011-.092l-.169-3.063a.34.34,0,0,0-.334-.318l-7.483.012a.332.332,0,0,0-.344.319Z" transform="translate(-95.901 -168.801)" fill="#1b3244"/><path d="M165.5,170.916l.011.154.23,2.91a.33.33,0,0,0,.333.307l7.657-.012a.335.335,0,0,0,.318-.229.373.373,0,0,0,.016-.154l-.416-3.063a.336.336,0,0,0-.334-.29l-7.483.011a.343.343,0,0,0-.333.353Z" transform="translate(-97.246 -168.799)" fill="#1b3244"/><path d="M178.276,170.926l.016.1.47,2.965a.324.324,0,0,0,.328.279l7.652-.011a.342.342,0,0,0,.313-.214.319.319,0,0,0,.015-.191l-.667-3.07a.334.334,0,0,0-.328-.262l-7.472.011a.341.341,0,0,0-.331.35A.386.386,0,0,0,178.276,170.926Z" transform="translate(-98.591 -168.797)" fill="#1b3244"/><path d="M191.035,170.93l.016.065.722,3a.338.338,0,0,0,.323.258l7.635-.011a.331.331,0,0,0,.307-.208.345.345,0,0,0,.011-.225l-.914-3.069a.338.338,0,0,0-.322-.243l-7.461.011a.34.34,0,0,0-.325.355A.374.374,0,0,0,191.035,170.93Z" transform="translate(-99.935 -168.795)" fill="#1b3244"/><path d="M204.125,170.5a.333.333,0,0,0-.334.335.343.343,0,0,0,.016.1l.011.032.977,3.036a.336.336,0,0,0,.317.23l7.62-.012a.334.334,0,0,0,.307-.2.321.321,0,0,0,0-.244l-1.166-3.069a.33.33,0,0,0-.311-.214Z" transform="translate(-101.28 -168.795)" fill="#1b3244"/><path d="M213.71,195.209l-123.947.011a.555.555,0,0,1-.556-.544h0v2.9a.562.562,0,0,0,.562.551l123.946-.011a.561.561,0,0,0,.558-.561c0-.016,0-2.85,0-2.85A.561.561,0,0,1,213.71,195.209Z" transform="translate(-89.207 -171.342)" fill="#1b3244"/><path d="M104.792,187.527h-8.33a.334.334,0,0,0-.316.228l-1,3.053a.313.313,0,0,0,.011.234.331.331,0,0,0,.305.2h8.508a.334.334,0,0,0,.321-.243l.805-2.991.016-.055a.331.331,0,0,0-.323-.429Z" transform="translate(-89.831 -170.589)" fill="#fff"/><path d="M118.953,187.515h-8.341a.325.325,0,0,0-.32.25l-.758,3.056a.311.311,0,0,0,.016.2.333.333,0,0,0,.31.213h8.521a.332.332,0,0,0,.327-.272l.556-2.959.016-.088a.336.336,0,0,0-.265-.4A.276.276,0,0,0,118.953,187.515Z" transform="translate(-91.348 -170.588)" fill="#fff"/><path d="M184.625,190.771l-.665-3.056a.333.333,0,0,0-.327-.262l-58.881.012a.331.331,0,0,0-.327.278l-.5,3.045a.315.315,0,0,0,.016.163.328.328,0,0,0,.31.224l60.06-.011a.34.34,0,0,0,.31-.213A.407.407,0,0,0,184.625,190.771Z" transform="translate(-92.864 -170.581)" fill="#fff"/><path d="M204.986,190.737l-.911-3.057a.338.338,0,0,0-.321-.243h-8.335a.327.327,0,0,0-.331.323.352.352,0,0,0,.011.086l.015.065.72,2.991a.335.335,0,0,0,.32.257h8.508a.327.327,0,0,0,.305-.207A.272.272,0,0,0,204.986,190.737Z" transform="translate(-100.363 -170.579)" fill="#fff"/><path d="M219.352,190.7l-1.16-3.057a.329.329,0,0,0-.31-.213h-8.32a.333.333,0,0,0-.333.334.363.363,0,0,0,.017.1l.011.032.972,3.025a.335.335,0,0,0,.316.228h8.494a.333.333,0,0,0,.305-.2A.306.306,0,0,0,219.352,190.7Z" transform="translate(-101.853 -170.579)" fill="#fff"/><path d="M97.372,185.438l12.033-.011h8.637a.332.332,0,0,0,.327-.272l.556-2.959.016-.088a.331.331,0,0,0-.263-.386.316.316,0,0,0-.064-.006h-8.3l-11.942.011a.336.336,0,0,0-.317.229l-1,3.045a.334.334,0,0,0,.214.42.358.358,0,0,0,.1.016Z" transform="translate(-90.033 -169.977)" fill="#fff"/><path d="M125.205,185.415h8.226a.341.341,0,0,0,.332-.3l.311-2.917.016-.132a.333.333,0,0,0-.3-.363l-.031,0-8.053.011a.333.333,0,0,0-.327.279l-.5,3.045a.316.316,0,0,0,.016.163A.328.328,0,0,0,125.205,185.415Z" transform="translate(-92.965 -169.975)" fill="#fff"/><path d="M139.132,185.4h8.232a.333.333,0,0,0,.332-.327l.071-2.823v-.228a.337.337,0,0,0-.328-.344h0l-8.057.012a.332.332,0,0,0-.332.305l-.257,3.051a.258.258,0,0,0,.012.114A.332.332,0,0,0,139.132,185.4Z" transform="translate(-94.431 -169.972)" fill="#fff"/><path d="M161.127,181.662l-8.057.011a.331.331,0,0,0-.332.329v3.053h0a.331.331,0,0,0,.329.332H161.3a.329.329,0,0,0,.321-.257.455.455,0,0,0,.011-.092l-.169-3.051A.334.334,0,0,0,161.127,181.662Z" transform="translate(-95.901 -169.971)" fill="#fff"/><path d="M174.77,181.644l-8.053.011a.331.331,0,0,0-.334.328c0,.012,0,.024,0,.037l.011.152.229,2.9a.327.327,0,0,0,.332.305h8.232a.337.337,0,0,0,.317-.228.359.359,0,0,0,.015-.154l-.414-3.051A.354.354,0,0,0,174.77,181.644Z" transform="translate(-97.339 -169.969)" fill="#fff"/><path d="M188.419,181.632l-8.046.011a.332.332,0,0,0-.332.332.278.278,0,0,0,.005.055l.015.1.468,2.952a.324.324,0,0,0,.327.278h8.221a.341.341,0,0,0,.31-.212.326.326,0,0,0,.015-.191l-.665-3.057A.332.332,0,0,0,188.419,181.632Z" transform="translate(-98.778 -169.968)" fill="#fff"/><path d="M194.437,185.089a.337.337,0,0,0,.321.257h8.655l12.008-.011a.332.332,0,0,0,.305-.2.316.316,0,0,0,0-.242l-1.161-3.057a.328.328,0,0,0-.31-.213l-11.952.011h-8.287a.327.327,0,0,0-.331.323.312.312,0,0,0,.01.086l.016.065Z" transform="translate(-100.215 -169.967)" fill="#fff"/><path d="M99.27,179.629h14.252a.338.338,0,0,0,.327-.262l.676-2.974.015-.071a.333.333,0,0,0-.249-.4.329.329,0,0,0-.078-.008H100.268a.334.334,0,0,0-.317.228l-1,3.046a.313.313,0,0,0,.012.234A.32.32,0,0,0,99.27,179.629Z" transform="translate(-90.232 -169.365)" fill="#fff"/><path d="M127.814,175.889l-7.747.011a.334.334,0,0,0-.327.267l-.625,3.046a.349.349,0,0,0,.015.184.332.332,0,0,0,.31.218l7.92-.012a.329.329,0,0,0,.327-.283l.437-2.942.015-.1a.33.33,0,0,0-.326-.388Z" transform="translate(-92.357 -169.363)" fill="#fff"/><path d="M132.891,179.591l7.927-.011a.334.334,0,0,0,.332-.31l.191-2.888.011-.163a.335.335,0,0,0-.317-.353h-.015l-7.752.011a.337.337,0,0,0-.332.294l-.381,3.046a.341.341,0,0,0,.016.147A.346.346,0,0,0,132.891,179.591Z" transform="translate(-93.774 -169.36)" fill="#fff"/><path d="M146.341,179.584l7.932-.011a.326.326,0,0,0,.327-.316v-.022l-.044-3.051a.334.334,0,0,0-.332-.327l-7.758.011a.331.331,0,0,0-.332.316L146,179.235a.424.424,0,0,0,0,.082A.338.338,0,0,0,146.341,179.584Z" transform="translate(-95.191 -169.359)" fill="#fff"/><path d="M159.454,179.237a.332.332,0,0,0,.332.32l7.932-.011a.336.336,0,0,0,.327-.365l-.294-3.051a.331.331,0,0,0-.332-.3l-7.752.011a.333.333,0,0,0-.332.335v.221Z" transform="translate(-96.596 -169.356)" fill="#fff"/><path d="M180.6,175.816l-7.747.011a.333.333,0,0,0-.334.333c0,.011,0,.021,0,.032l.015.122.349,2.93a.337.337,0,0,0,.332.294l7.927-.011a.326.326,0,0,0,.31-.218.285.285,0,0,0,.016-.168l-.539-3.057A.344.344,0,0,0,180.6,175.816Z" transform="translate(-97.985 -169.355)" fill="#fff"/><path d="M186.318,179.264a.332.332,0,0,0,.327.267l7.916-.011a.322.322,0,0,0,.305-.207.341.341,0,0,0,.016-.207l-.79-3.057a.332.332,0,0,0-.321-.25l-7.736.011a.333.333,0,0,0-.334.333.315.315,0,0,0,.006.064l.016.081Z" transform="translate(-99.374 -169.353)" fill="#fff"/><path d="M199.842,179.52h14.126a.333.333,0,0,0,.305-.2.316.316,0,0,0,0-.242l-1.161-3.057a.328.328,0,0,0-.31-.213H198.987a.337.337,0,0,0-.333.341.342.342,0,0,0,.012.085l.012.048.838,3.007A.341.341,0,0,0,199.842,179.52Z" transform="translate(-100.739 -169.354)" fill="#fff"/><path d="M101.176,173.825l7.6-.011a.333.333,0,0,0,.321-.243l.806-2.991.016-.055a.335.335,0,0,0-.239-.409.32.32,0,0,0-.082-.011l-7.425.011a.335.335,0,0,0-.316.228l-1,3.046a.313.313,0,0,0,.011.234A.327.327,0,0,0,101.176,173.825Z" transform="translate(-90.433 -168.753)" fill="#fff"/><path d="M113.826,173.392a.314.314,0,0,0,.016.2.333.333,0,0,0,.31.212l7.616-.011a.332.332,0,0,0,.327-.272l.556-2.959.016-.088a.33.33,0,0,0-.263-.386.317.317,0,0,0-.064-.006l-7.435.012a.326.326,0,0,0-.321.25Z" transform="translate(-91.8 -168.751)" fill="#fff"/><path d="M127.3,170.357l-.5,3.046a.325.325,0,0,0,.015.163.333.333,0,0,0,.31.224l7.627-.012a.34.34,0,0,0,.332-.3l.31-2.917.016-.131a.338.338,0,0,0-.308-.364h-.024l-7.447.011A.366.366,0,0,0,127.3,170.357Z" transform="translate(-93.167 -168.749)" fill="#fff"/><path d="M140.032,170.364l-.256,3.051a.261.261,0,0,0,.011.115.327.327,0,0,0,.321.242l7.627-.011a.334.334,0,0,0,.332-.327l.07-2.823v-.228a.334.334,0,0,0-.327-.343h0l-7.452.011A.337.337,0,0,0,140.032,170.364Z" transform="translate(-94.535 -168.746)" fill="#fff"/><path d="M152.764,170.368v3.051h0a.331.331,0,0,0,.329.332h0l7.632-.012a.327.327,0,0,0,.321-.256.463.463,0,0,0,.011-.092l-.168-3.051a.339.339,0,0,0-.332-.317l-7.453.012a.33.33,0,0,0-.343.318Z" transform="translate(-95.904 -168.745)" fill="#fff"/><path d="M165.473,170.376l.011.153.229,2.9a.327.327,0,0,0,.332.305l7.627-.011a.336.336,0,0,0,.316-.229.369.369,0,0,0,.016-.153l-.415-3.051a.335.335,0,0,0-.331-.289l-7.453.011a.342.342,0,0,0-.332.352Z" transform="translate(-97.242 -168.742)" fill="#fff"/><path d="M178.194,170.385l.016.1.467,2.952a.324.324,0,0,0,.327.278l7.622-.011a.34.34,0,0,0,.31-.213.316.316,0,0,0,.016-.191l-.665-3.057a.333.333,0,0,0-.327-.261l-7.442.011a.34.34,0,0,0-.33.348A.364.364,0,0,0,178.194,170.385Z" transform="translate(-98.583 -168.74)" fill="#fff"/><path d="M190.9,170.39l.016.065.719,2.992a.336.336,0,0,0,.321.256l7.6-.011a.327.327,0,0,0,.305-.207.342.342,0,0,0,.011-.224l-.91-3.056a.337.337,0,0,0-.321-.243l-7.431.011a.339.339,0,0,0-.324.354A.3.3,0,0,0,190.9,170.39Z" transform="translate(-99.921 -168.738)" fill="#fff"/><path d="M203.939,169.963a.332.332,0,0,0-.316.437l.011.033.972,3.024a.333.333,0,0,0,.316.228l7.589-.011a.332.332,0,0,0,.305-.2.316.316,0,0,0,0-.242l-1.16-3.057a.33.33,0,0,0-.31-.213Z" transform="translate(-101.26 -168.738)" fill="#fff"/></g><g transform="translate(16.922 6.607)"><g transform="translate(2.064 0.765)"><path d="M114.018,106.689" transform="translate(-110.806 -105.5)" fill="#848485" opacity="0.115"/><path d="M112.736,106.214" transform="translate(-110.671 -105.45)" fill="#848485" opacity="0.308"/><path d="M110.684,105.455" transform="translate(-110.455 -105.37)" fill="#848485" opacity="0.615"/><path d="M110.428,105.36" transform="translate(-110.428 -105.36)" fill="#848485" opacity="0.654"/></g><rect width="88.628" height="50.54" fill="#fff"/><rect width="88.628" height="3.352" fill="#004b63"/><ellipse cx="1.029" cy="1.029" rx="1.029" ry="1.029" transform="translate(3.875 0.647)" fill="#CCE7FF"/><ellipse cx="1.029" cy="1.029" rx="1.029" ry="1.029" transform="translate(6.797 0.647)" fill="#80A9F5"/><path d="M147.225,115.279h-5a.336.336,0,0,1-.335-.335v-.12a.336.336,0,0,1,.335-.335h5a.336.336,0,0,1,.335.335v.12A.336.336,0,0,1,147.225,115.279Z" transform="translate(-111.679 -105.557)" fill="#CCE7FF"/><path d="M157.324,157.686h-5a.335.335,0,0,1-.335-.335v-.12a.336.336,0,0,1,.335-.335h5a.336.336,0,0,1,.335.335v.12a.334.334,0,0,1-.332.335Z" transform="translate(-112.743 -110.025)" fill="#555f69"/><path d="M138.591,146.579h-9.6a.336.336,0,0,1-.335-.336v-.12a.336.336,0,0,1,.335-.335h9.6a.336.336,0,0,1,.335.335v.12A.335.335,0,0,1,138.591,146.579Z" transform="translate(-110.285 -108.855)" fill="#555f69"/><g transform="translate(0.952 0.647)"><ellipse cx="1.029" cy="1.029" rx="1.029" ry="1.029" fill="#e7e7f7"/><path d="M141.244,118.056H128.987a.336.336,0,0,1-.335-.335v-.12a.336.336,0,0,1,.335-.335h12.257a.336.336,0,0,1,.335.335v.12A.336.336,0,0,1,141.244,118.056Z" transform="translate(-111.237 -106.497)" fill="#555f69"/><path d="M141.244,154.91H128.987a.336.336,0,0,1-.335-.335v-.12a.336.336,0,0,1,.335-.335h12.257a.336.336,0,0,1,.335.335v.12A.336.336,0,0,1,141.244,154.91Z" transform="translate(-111.237 -110.38)" fill="#CCE7FF"/><path d="M147.293,137.06h-5a.336.336,0,0,1-.335-.335v-.12a.336.336,0,0,1,.335-.335h5a.336.336,0,0,1,.335.335v.12A.336.336,0,0,1,147.293,137.06Z" transform="translate(-112.638 -108.499)" fill="#CCE7FF"/><path d="M147.332,131.506H129.061a.336.336,0,0,1-.335-.336v-.12a.336.336,0,0,1,.335-.335h18.273a.336.336,0,0,1,.335.335v.12A.335.335,0,0,1,147.332,131.506Z" transform="translate(-111.244 -107.914)" fill="#a9becd"/></g><g transform="translate(18.367 8.931)"><path d="M138.591,115.279h-9.6a.336.336,0,0,1-.335-.335v-.12a.336.336,0,0,1,.335-.335h9.6a.336.336,0,0,1,.335.335v.12A.335.335,0,0,1,138.591,115.279Z" transform="translate(-128.652 -114.488)" fill="#555f69"/><path d="M138.591,126.388h-9.6a.336.336,0,0,1-.335-.335v-.12a.336.336,0,0,1,.335-.335h9.6a.336.336,0,0,1,.335.335v.12A.335.335,0,0,1,138.591,126.388Z" transform="translate(-128.652 -115.658)" fill="#555f69"/><path d="M160.759,120.832h-9.6a.336.336,0,0,1-.335-.335v-.123a.336.336,0,0,1,.335-.335h9.6a.336.336,0,0,1,.335.335v.12a.336.336,0,0,1-.332.339Z" transform="translate(-130.988 -115.073)" fill="#a9becd"/><path d="M147.225,157.687h-5a.336.336,0,0,1-.335-.336v-.12a.336.336,0,0,1,.335-.335h5a.336.336,0,0,1,.335.335v.12a.334.334,0,0,1-.334.336Z" transform="translate(-130.046 -118.956)" fill="#CCE7FF"/><path d="M141.244,123.61H128.987a.336.336,0,0,1-.335-.335v-.12a.336.336,0,0,1,.335-.335h12.257a.336.336,0,0,1,.335.335v.12A.336.336,0,0,1,141.244,123.61Z" transform="translate(-128.652 -115.366)" fill="#555f69"/><path d="M147.263,120.832H128.987a.336.336,0,0,1-.335-.335v-.123a.336.336,0,0,1,.335-.335H147.26a.336.336,0,0,1,.335.335v.12A.337.337,0,0,1,147.263,120.832Z" transform="translate(-128.652 -115.073)" fill="#CCE7FF"/><path d="M138.591,157.687h-9.6a.336.336,0,0,1-.335-.336v-.12a.336.336,0,0,1,.335-.335h9.6a.336.336,0,0,1,.335.335v.12A.334.334,0,0,1,138.591,157.687Z" transform="translate(-128.652 -118.956)" fill="#a9becd"/><path d="M160.759,152.13h-9.6a.336.336,0,0,1-.335-.335v-.12a.336.336,0,0,1,.335-.335h9.6a.336.336,0,0,1,.335.335v.12a.336.336,0,0,1-.335.335Z" transform="translate(-130.988 -118.371)" fill="#555f69"/><path d="M146.895,149.356H128.987a.336.336,0,0,1-.335-.335v-.12a.336.336,0,0,1,.335-.336h17.9a.336.336,0,0,1,.335.336v.12A.335.335,0,0,1,146.895,149.356Z" transform="translate(-128.652 -118.078)" fill="#555f69"/><path d="M147.263,152.13H128.987a.336.336,0,0,1-.335-.335v-.12a.336.336,0,0,1,.335-.335H147.26a.336.336,0,0,1,.335.335v.12A.337.337,0,0,1,147.263,152.13Z" transform="translate(-128.652 -118.371)" fill="#555f69"/><path d="M157.4,137.061h-5.01a.336.336,0,0,1-.335-.335v-.12a.336.336,0,0,1,.335-.335h5.01a.336.336,0,0,1,.335.335v.12a.334.334,0,0,1-.332.335Z" transform="translate(-131.117 -116.783)" fill="#a9becd"/><path d="M138.661,137.061h-9.6a.336.336,0,0,1-.336-.335v-.12a.336.336,0,0,1,.336-.335h9.6a.336.336,0,0,1,.335.335v.12a.336.336,0,0,1-.335.335Z" transform="translate(-128.66 -116.783)" fill="#555f69"/><path d="M160.828,131.506h-9.6a.336.336,0,0,1-.336-.336v-.12a.336.336,0,0,1,.336-.335h9.6a.336.336,0,0,1,.335.335v.12a.336.336,0,0,1-.335.336Z" transform="translate(-130.995 -116.198)" fill="#555f69"/><path d="M146.964,140.682h-17.9a.336.336,0,0,1-.336-.335v-.123a.336.336,0,0,1,.336-.335h17.9a.336.336,0,0,1,.336.335v.12a.334.334,0,0,1-.33.339Z" transform="translate(-128.66 -117.164)" fill="#555f69"/><path d="M141.315,134.283H129.059a.336.336,0,0,1-.336-.335h0v-.12a.336.336,0,0,1,.336-.336h12.257a.336.336,0,0,1,.335.336v.12A.336.336,0,0,1,141.315,134.283Z" transform="translate(-128.659 -116.49)" fill="#555f69"/></g><g transform="translate(59.036 10.011)"><path d="M181.055,118.364a3.137,3.137,0,1,1-5.354,2.271l-1.584.028a4.722,4.722,0,1,0,8.059-3.418h0l-1.121,1.121Z" transform="translate(-174.111 -115.859)" fill="#80A9F5"/><path d="M175.491,117.076a4.7,4.7,0,0,0-1.38,3.422l1.585-.028a3.136,3.136,0,0,1,5.354-2.271l1.121-1.121A4.726,4.726,0,0,0,175.491,117.076Z" transform="translate(-174.11 -115.695)" fill="#1b3244"/></g><g transform="translate(59.039 34.696)"><path d="M174.115,148.089a4.72,4.72,0,0,0,8.059,3.262l-1.121-1.121a3.137,3.137,0,1,1,0-4.437h0l1.121-1.122h0a4.72,4.72,0,0,0-8.059,3.422Z" transform="translate(-174.114 -143.288)" fill="#80A9F5"/><path d="M181.871,150.389l1.121,1.122a4.721,4.721,0,0,0,0-6.676l0,0-1.121,1.121a3.132,3.132,0,0,1,.007,4.429Z" transform="translate(-174.931 -143.451)" fill="#1b3244"/></g><g transform="translate(59.035 22.351)"><path d="M175.7,134.214a3.144,3.144,0,1,1,1.626,2.746l-.768,1.389a4.724,4.724,0,1,0-2.44-4.134H175.7Z" transform="translate(-174.11 -129.489)" fill="#80A9F5"/><path d="M176.553,138.9l.768-1.389a3.131,3.131,0,0,1-1.622-2.746h-1.59A4.716,4.716,0,0,0,176.553,138.9Z" transform="translate(-174.109 -130.045)" fill="#1b3244"/></g><g transform="translate(71.31 10.465)"><rect width="12.289" height="1.699" fill="#7997af"/><rect width="12.289" height="1.699" transform="translate(0 3.687)" fill="#7997af"/><rect width="6.145" height="1.699" transform="translate(0 7.373)" fill="#7997af"/></g><g transform="translate(71.31 22.315)"><rect width="12.289" height="1.699" fill="#7997af"/><rect width="12.289" height="1.699" transform="translate(0 3.687)" fill="#7997af"/><rect width="6.145" height="1.699" transform="translate(0 7.369)" fill="#7997af"/></g><g transform="translate(71.31 34.162)"><rect width="12.289" height="1.699" fill="#7997af"/><rect width="12.289" height="1.699" transform="translate(0 3.687)" fill="#7997af"/><rect width="6.145" height="1.699" transform="translate(0 7.373)" fill="#7997af"/></g><rect width="11.778" height="11.778" transform="translate(3.264 8.092)" fill="#80A9F5"/><rect width="11.778" height="11.778" transform="translate(3.264 22.163)" fill="#004b63"/><rect width="11.778" height="11.778" transform="translate(3.264 36.234)" fill="#80A9F5"/></g></g><g transform="translate(0)"><path d="M91.792,209.223c0,.682-7.27,1.235-16.237,1.235s-16.238-.553-16.238-1.235,7.27-1.235,16.238-1.235S91.792,208.541,91.792,209.223Z" transform="translate(-49.07 -105.528)" fill="#d8d8d8"/><path d="M65.929,204.9a8.625,8.625,0,0,1,.2,1.488c.1.6.668.815,1,1.306.364.542.936,1.411-1.3,1.454-2.39.047-3.807-.113-3.4-1.415a6.625,6.625,0,0,0,.457-2.3,1.408,1.408,0,0,1,.271-1.122C63.431,204.052,65.578,203.595,65.929,204.9Z" transform="translate(-49.391 -105.11)" fill="#1b3244"/><path d="M101.329,118.908c-.681,1.159-1.264,1.859-4.124,3.2a37.936,37.936,0,0,1-8.171,3.027c-1.879.413-2.258-4.171.1-5.26,1.992-.921,9.939-1.684,11.15-2.249C101.084,117.253,101.881,117.968,101.329,118.908Z" transform="translate(-52.039 -95.388)" fill="url(#a)"/><path d="M86.991,124.108c-.961-.422-2.957-1.694-6.844-5.922a36.706,36.706,0,0,1-3.817-4.742c-1.1-1.584-.191-3.356.794-3.589,1.587-.377,3.993.186,4.618.981,3.532,4.488,5.973,8.156,7.02,9.091C90.292,121.294,88.131,124.609,86.991,124.108Z" transform="translate(-50.81 -94.386)" fill="url(#b)"/><path d="M77.856,101.732c.977.459,1.4.463,1.755-.753.273-.944.736-4.261-.777-4.483s-2.7-.265-2.525,1.779S76.695,101.187,77.856,101.732Z" transform="translate(-50.859 -92.98)" fill="#1b3244"/><path d="M71.6,104.35c-.022.149-.352,3.328-.41,5.767a2.516,2.516,0,0,0,2.365,2.359h.053c1.172,0,2.551-1.062,2.448-2.235a31.541,31.541,0,0,1-.041-4.331Z" transform="translate(-50.321 -93.818)" fill="#FFBA9B"/><path d="M64.968,118.116c2.178,7.16,3.155,15.849,2.728,20.85H84.1S84,123.6,82.9,115.19a6.294,6.294,0,0,0-3.461-4.825,11.775,11.775,0,0,0-4.373-.968H72.039a18.333,18.333,0,0,0-3.2.4C64.5,110.613,63.706,113.966,64.968,118.116Z" transform="translate(-49.608 -94.35)" fill="url(#c)"/><path d="M68.08,152.484s-1.418-3.443-.068-10.035h16.4a93.292,93.292,0,0,1,.6,10.035Z" transform="translate(-49.925 -98.204)" fill="#004b63"/><g transform="translate(13.351 44.474)"><path d="M70.829,177.1c1.313-5.339-4.141-6.279-5.863-2.416-2.435,5.464-2.241,22.931-2.111,26.418.017.457.264.371.529.279a4.071,4.071,0,0,1,1.735-.314,1.5,1.5,0,0,1,.913.717C66.544,197.036,69.556,182.274,70.829,177.1Z" transform="translate(-62.787 -146.245)" fill="#004b63"/><path d="M75.981,153.281c.576-6.635-2.051-11.786-6.167-9.6a5.6,5.6,0,0,0-2.6,4.5c-.233,1.736-1.507,19.787-1.954,23.049-1.006,7.353,4.8,5.371,5.43,3.333C72.28,169.425,75.667,156.9,75.981,153.281Z" transform="translate(-63.035 -143.173)" fill="#004b63"/></g><path d="M87.335,176.831c.216-4.979-4.632-4.873-5.85-.822-1.916,6.375,1.4,20.06,1.6,27.876.845-1.35,1.643-1.677,2.018-1.65a1.348,1.348,0,0,1,.941.51C85.924,192.45,87.1,182.153,87.335,176.831Z" transform="translate(-51.343 -101.845)" fill="#004b63"/><path d="M81.248,174.222c.645,2.033,6.194,4.386,5.614-3.013-.257-3.282-.942-21.4-1.074-23.151s-.434-4.3-1.311-4.619c-4.381-1.592-8.631,3.619-7.478,10.177C77.769,158,79.912,170.007,81.248,174.222Z" transform="translate(-50.913 -98.404)" fill="#004b63"/><path d="M69.839,100.97c.271,2.714.352,3.316,1.537,4.427a6.4,6.4,0,0,0,4.167,1.62c1.388,0,2.419-1.467,2.733-2.616a19.746,19.746,0,0,0,.314-6.95,4.384,4.384,0,0,0-3.975-3.333C72.7,94.117,69.176,94.339,69.839,100.97Z" transform="translate(-50.17 -92.74)" fill="#FFBA9B"/><path d="M86.5,206.142a5.568,5.568,0,0,0,2.324,1.7c1.241.535,3.872.785,2.411,1.255a9.077,9.077,0,0,1-4.029.053,18.2,18.2,0,0,0-2.719-.158c-1.341-.008-1.352-.088-1.171-1.547C83.562,205.433,85.893,205.008,86.5,206.142Z" transform="translate(-51.59 -105.268)" fill="#1b3244"/><path d="M69.778,100.719c.735.734,1.118.876,1.834-.108.556-.764,2.059-3.612.762-4.307s-2.355-1.122-2.865.784S68.907,99.847,69.778,100.719Z" transform="translate(-50.104 -92.909)" fill="#1b3244"/><path d="M70.515,101.653c.384.939.3,1.863-.2,2.064s-1.2-.4-1.585-1.337-.3-1.863.2-2.063S70.131,100.715,70.515,101.653Z" transform="translate(-50.037 -93.389)" fill="#FFBA9B"/><path d="M70.767,95.46c1.057,1.578,6.165,1.726,7.832,1.144s1.551-3.8-.833-4.026c-1.343,0-.37.319-1.459.76C75.755,93.563,69.639,93.775,70.767,95.46Z" transform="translate(-50.262 -92.578)" fill="#1b3244"/><path d="M101.451,117.267c.715-.5,6.52-4.178,6.78-2.708.286,1.625-1.7,3.587-2.448,4.165a3.536,3.536,0,0,1-4.027.315C101.177,118.574,100.774,117.747,101.451,117.267Z" transform="translate(-53.472 -95.011)" fill="#FFBA9B"/><path d="M101.636,116.835c.2-.351,1.372-2.425,1.777-2.233.616.293-.085,1.691-.546,2.618-.25.5-.922,1.013-1.305.76S101.322,117.4,101.636,116.835Z" transform="translate(-53.497 -95.051)" fill="#FFBA9B"/><g transform="translate(0 23.972)"><g transform="translate(0 7.447)"><g transform="translate(0 0.959)"><path d="M47.872,132.622c-.148-1.039,1.673-2.241,1.864-2.319l2.989-1.291-.853,2.154-2.029.821-1.517.45Z" transform="translate(-47.863 -129.012)" fill="#004b63"/></g><g transform="translate(4.007)"><path d="M52.342,131.054,53.2,128.9l2.373-.961-.853,2.154Z" transform="translate(-52.342 -127.94)" fill="#e4e9f7"/></g></g><g transform="translate(4.007 9.6)"><path d="M53.291,135.132l-.949-3.825,2.373-.96.948,3.825Z" transform="translate(-52.342 -130.347)" fill="#edf7f7"/></g><g transform="translate(0.007 10.562)"><path d="M49.087,136.635a3.168,3.168,0,0,1-.921-1.721,19.981,19.981,0,0,1-.294-2.035l.454-.184,1.517-.45,2.028-.822.949,3.825-2.427.921-.853.284Z" transform="translate(-47.871 -131.422)" fill="#004b63"/></g><g transform="translate(1.222 14.386)"><path d="M51.616,137.956c-.191.078-2.044.089-2.387-.87l.454-.184.853-.284,2.428-.921,2.359.831Z" transform="translate(-49.229 -135.696)" fill="#004b63"/></g><g transform="translate(6.379)"><path d="M75.086,121.235l-.408.02-19.684,7.961.853-2.154,17.818-7.2.611-.248.663.144a.894.894,0,0,1,.14.294.569.569,0,0,1,.017.067c.048.344.611.261.36.539A1.43,1.43,0,0,0,75.086,121.235Z" transform="translate(-54.994 -119.616)" fill="#004b63"/></g><g transform="translate(6.379 1.364)"><g transform="translate(0 0.254)"><path d="M55.943,133.232l-.949-3.825,19.657-7.961.437-.021a.412.412,0,0,0,0,.166c.068.275.36.389.683.488a2.2,2.2,0,0,1,.891.393.474.474,0,0,1,.126.217.581.581,0,0,1,0,.285,3.181,3.181,0,0,1-.562.933,1.084,1.084,0,0,0-.3.8.382.382,0,0,0,.121.2l-.254.209-.184.158Z" transform="translate(-54.994 -121.425)" fill="#a9becd"/></g><g transform="translate(20.083)"><path d="M78.4,124.877a.366.366,0,0,1-.118-.189,1.074,1.074,0,0,1,.3-.809,3.178,3.178,0,0,0,.562-.932.579.579,0,0,0,.006-.268l0-.018a.49.49,0,0,0-.126-.217,2.189,2.189,0,0,0-.892-.394c-.322-.1-.614-.214-.676-.463a.244.244,0,0,1-.006-.024.4.4,0,0,1,0-.166l.512-.025.785-.038,3.953-.193a.236.236,0,0,1,.028.064.3.3,0,0,1,.005.081l-3.315,2.751-.658.546Z" transform="translate(-77.443 -121.141)" fill="#edf7f7"/></g><g transform="translate(21.048 0.142)"><path d="M78.8,126.452a1.273,1.273,0,0,0-.018-.451l-.014-.057c-.11-.327.517-.769.235-.852a1.237,1.237,0,0,1-.479-.2l.356-.294.658-.546L82.85,121.3c-.034.313-.6.622-.534.887.029.115.158.185.322.223l-3.6,3.74Z" transform="translate(-78.521 -121.3)" fill="#edf7f7"/></g></g><g transform="translate(26.33 0.142)"><path d="M82.684,121l-3.952.193-.785.038-.513.025a1.415,1.415,0,0,1,.376-.576c.247-.277-.318-.2-.36-.539a.579.579,0,0,0-.017-.068.921.921,0,0,0-.14-.294l.175.039,4.413.406a.353.353,0,0,0-.088.247C81.866,120.761,82.529,120.731,82.684,121Z" transform="translate(-77.294 -119.775)" fill="#edf7f7"/></g><g transform="translate(30.829 0.593)"><path d="M82.334,120.554l0-.015,0-.013a.344.344,0,0,1,.088-.246l1.9.412-1.278,1.62c-.162-.031-.3-.107-.323-.223-.066-.265.506-.575.534-.887a.266.266,0,0,0,0-.071l-.006-.023,0-.012,0-.007,0-.013a.1.1,0,0,0-.013-.021l0-.013,0-.006,0-.008,0-.006,0-.007L83.2,121l-.011-.011-.011-.011h0l0-.007,0-.006,0-.007h0l-.007-.005h0l-.007-.005h0l-.009-.006-.014-.008h0l-.01-.006h0l-.01,0h0l-.011-.005h0l-.01-.005h0l-.012-.005-.006,0-.012,0h0l-.011,0-.006,0-.01,0-.005,0-.012-.005L83,120.891l-.018-.007-.017-.006-.006,0-.011,0-.006,0-.013,0-.018-.006,0,0-.012,0-.011,0-.007,0h0l-.012,0-.022-.007-.014,0h-.005l-.016-.005-.016,0-.014-.005-.008,0-.012,0-.017-.006-.016-.006-.018-.005h0l-.011,0h0l-.013,0-.016-.007-.015-.006h0l-.01-.005h0l-.011-.005h0l-.01,0h0l-.009-.005-.014-.008-.013-.008-.013-.008h0l-.008-.005-.013-.009-.011-.009-.012-.009-.01-.01-.009-.01-.009-.011,0-.013,0-.012,0-.012,0-.013a.089.089,0,1,1-.156-.085Z" transform="translate(-82.323 -120.279)" fill="#a9becd"/></g><g transform="translate(4.956 13.425)"><path d="M55.762,136.414l-2.359-.831,2.373-.961,2.359.83Z" transform="translate(-53.403 -134.622)" fill="#edf7f7"/></g><g transform="translate(7.328 5.096)"><path d="M58.414,134.471l-2.359-.831,19.657-7.96.184-.158.254-.209a1.264,1.264,0,0,0,.479.2c.287.08-.341.523-.235.853l.014.056a1.279,1.279,0,0,1,.017.452l-.366.467-.239.1Z" transform="translate(-56.055 -125.312)" fill="#e4e9f7"/></g></g><path d="M66.857,136.791c-1.292-.367-1.965-1.29-4.147-3.575-3.142-3.29-3.677-4.274-4.874-6.966-.781-1.758,3.377-3.03,5.023-1.022,1.392,1.7,4.124,9.2,4.975,10.229C68.4,136.139,67.907,137.089,66.857,136.791Z" transform="translate(-48.904 -96.153)" fill="url(#d)"/><path d="M57.739,124.137c.167-1.037.9-3.288,4.015-8.112a36.85,36.85,0,0,1,3.631-4.885c1.259-1.459,3.2-1.027,3.674-.132.762,1.442.822,3.911.209,4.717-3.458,4.546-6.4,7.83-7.038,9.078C61.293,126.625,57.541,125.366,57.739,124.137Z" transform="translate(-48.903 -94.573)" fill="url(#e)"/><path d="M67.307,136.06c.629-.689,1.612-1.761,2.1-2.374s1.923.441,1.954.97c.047.785-.745,2.931-1.752,2.927s-1.293.917-2.151.633S66.279,137.188,67.307,136.06Z" transform="translate(-49.844 -97.179)" fill="#FFBA9B"/><g transform="translate(8.828)"><g clip-path="url(#f)"><path d="M42.971,86.363c8.558-1.422,20.716,4.257,23.176,13.137,2.511,9.067-4.353,13.4,1.275,25.956,4.453,9.929-.661,20.819-1.866,29.412-1.322,9.437,3.434,14,1.864,22.415-3.613,19.365-3.38,25.072-16.793,29.177-13.77,4.215-16.6-14.847-25.543-29.915-6.6-11.125-10.359-22.631-5.844-30.8,6.483-11.731,15.961.17,12.636-13.984-1.989-8.469-1.667-23.109,10.669-20.906S30.648,88.413,42.971,86.363Z" transform="translate(-53.468 -91.857)" opacity="0.3" fill="url(#g)"/></g></g><g transform="translate(94.52 26.864)"><path d="M167.684,213.837c0,.51-2.8.923-6.253.923s-6.254-.413-6.254-.923,2.8-.923,6.254-.923S167.684,213.327,167.684,213.837Z" transform="translate(-154.86 -132.911)" fill="#d8d8d8"/><path d="M195.862,157.732c.527-.98,1.439-3.275,2.4-8.908a41.212,41.212,0,0,0,.674-5.921c.092-1.848-1.41-2.363-2.257-1.8a6.44,6.44,0,0,0-2.5,3.81c-.577,5.545-.869,9.74-1.222,11.122C192.445,158.054,195.238,158.894,195.862,157.732Z" transform="translate(-158.834 -125.322)" fill="url(#h)"/><path d="M181.585,155.339c.384.764,1.329.368,3.746,1.634a24.256,24.256,0,0,0,7.381,2.8c1.865.439,3.246-2.056,1.119-3.008-1.8-.8-10.276-2.478-11.366-2.97C181.743,153.469,181.274,154.719,181.585,155.339Z" transform="translate(-157.632 -126.677)" fill="url(#i)"/><path d="M204.147,134.61c.017.158.269,3.542.314,6.138.021,1.273-.9,2.481-1.813,2.511h-.041a2.261,2.261,0,0,1-1.876-2.379c.144-2.261.036-4.573.032-4.609Z" transform="translate(-159.659 -124.661)" fill="#FFBA9B"/><path d="M205.75,149.79a44.289,44.289,0,0,0-1.623,7.105,18.047,18.047,0,0,0,.021,5.349c.146,1.068.355,2.126.6,3.175.091.4.873,3.6.909,3.947H191.014c.14-2.869,3.408-11.88,1.2-17.716-1.532-4.041.5-4.165,1.882-7.529a9.872,9.872,0,0,1,1.17-2.44,4.2,4.2,0,0,1,2.24-1.374,8.286,8.286,0,0,1,1.362-.191c2.477-.2,8.312-.918,8.86,2.608a6.244,6.244,0,0,1-.291,2.849c-.327,1.029-.816,2-1.226,3Q205.962,149.174,205.75,149.79Z" transform="translate(-158.636 -125.22)" fill="url(#j)"/><path d="M198.719,149.4a5.294,5.294,0,0,0-2.2-1.206c-.63-.081.42.792.9,1.251S199.284,149.872,198.719,149.4Z" transform="translate(-159.195 -126.092)" fill="#FFBA9B"/><path d="M197.689,149.258c-1.776-.332-2.666-.8-3.494-.512s.324,1.464.924,1.673,2.705,1.09,3.35.693S199,149.5,197.689,149.258Z" transform="translate(-158.941 -126.141)" fill="#FFBA9B"/><path d="M195.038,157.145H184.309a1.271,1.271,0,0,1-1.138-.707l-3.33-6.732a1.27,1.27,0,0,1,1.139-1.833h10.728a1.269,1.269,0,0,1,1.137.707l3.331,6.733A1.27,1.27,0,0,1,195.038,157.145Z" transform="translate(-157.445 -126.058)" fill="url(#k)"/><g transform="translate(27.091 26.01)"><path d="M185.275,152.88h4.435l-.171-.318H185.1Z" transform="translate(-185.104 -152.562)" fill="#4badf7"/><path d="M187.235,153.512h2.986l-.171-.319h-2.986Z" transform="translate(-185.31 -152.628)" fill="#4badf7"/></g><path d="M194.716,157.176H184.292a1.233,1.233,0,0,1-1.106-.686l-3.235-6.542a1.234,1.234,0,0,1,1.106-1.781H191.48a1.233,1.233,0,0,1,1.106.687l3.235,6.542A1.233,1.233,0,0,1,194.716,157.176Z" transform="translate(-157.457 -126.089)" fill="url(#l)"/><path d="M193.876,129.33c.609,3.38,1.308,8.9,1.058,9.951,0,0,4.593-1.282,5-3.817s-2.44-9.75-5.1-9.426" transform="translate(-158.937 -123.757)" fill="url(#m)"/><path d="M210.006,157.822c.262-1.083.565-3.533.077-9.226a41.075,41.075,0,0,0-.842-5.9c-.378-1.812-1.959-1.931-2.637-1.171a6.436,6.436,0,0,0-1.456,4.317c.841,5.511,1.617,9.643,1.623,11.07C206.781,159,209.695,159.1,210.006,157.822Z" transform="translate(-160.122 -125.343)" fill="url(#n)"/><path d="M197.965,150.829c0,.679,1.278.873,2.975,3.01a24.3,24.3,0,0,0,5.615,5.549c1.528,1.157,3.8-.566,2.242-2.3-1.318-1.463-8.439-6.548-9.422-7.23C198.775,149.443,197.967,150.134,197.965,150.829Z" transform="translate(-159.368 -126.254)" fill="url(#o)"/><path d="M204.061,130.491c.342,2.883.4,3.526-.581,4.954a6.806,6.806,0,0,1-3.96,2.64c-1.444.319-2.85-.97-3.441-2.091a21.017,21.017,0,0,1-1.923-7.152,4.668,4.668,0,0,1,3.367-4.377C199.516,124.023,203.228,123.446,204.061,130.491Z" transform="translate(-158.966 -123.567)" fill="#FFBA9B"/><path d="M183.8,154.755a10.849,10.849,0,0,0-1.564-1.866c-.782-.6-1.589-.455-1.67-.182a2.4,2.4,0,0,0,.356,1.977,2.172,2.172,0,0,0,1.524.511C182.928,155.15,184.2,155.472,183.8,154.755Z" transform="translate(-157.528 -126.543)" fill="#FFBA9B"/><path d="M184.069,180.219a4.993,4.993,0,0,1-2.075,1.572c-1.108.495-3.457.727-2.152,1.162a7.8,7.8,0,0,0,3.6.049,15.606,15.606,0,0,1,2.427-.147c1.2-.008,1.206-.082,1.045-1.433C186.689,179.562,184.608,179.167,184.069,180.219Z" transform="translate(-157.418 -129.406)" fill="#1b3244"/><path d="M160.015,209.777a4.991,4.991,0,0,1-2.6,0c-1.182-.276-3.192-1.511-2.417-.375a7.8,7.8,0,0,0,2.835,2.212,15.782,15.782,0,0,1,2.021,1.352c.958.717,1.01.665,1.7-.51C162.5,210.838,161.081,209.267,160.015,209.777Z" transform="translate(-154.823 -132.491)" fill="#1b3244"/><path d="M194.318,127.2c-.688,2.129,8.1,3.817,9.823,3.125s.561-4.008-1.2-5.433S195.941,122.168,194.318,127.2Z" transform="translate(-158.98 -123.501)" fill="url(#p)"/><path d="M197.135,126.177c.062,1.66-2.654,2.645-2.839,4.071-.115.885-.824-1.674-.428-2.992S197.01,122.839,197.135,126.177Z" transform="translate(-158.924 -123.615)" fill="url(#q)"/><path d="M204.152,129.962c.821,3.334-1.131,6.364-1.38,7.412,0,0,4.592-1.281,5-3.817s-1-11.9-9.978-9.75" transform="translate(-159.35 -123.489)" fill="url(#r)"/><path d="M170.948,163.271c-2.645-3.783,1.055-6.03,3.991-3.452,4.621,4.055,7.024,12.461,10.766,18.662-1.309-.648-2.169-.648-2.438-.446-.437.328-.824.658-.824.658C177.4,170.6,173.776,167.315,170.948,163.271Z" transform="translate(-156.426 -127.2)" fill="url(#s)"/><path d="M203.142,182.13s4.917.346,2.373-9.3H190.873s-3.755,5.049,2.024,9.3Z" transform="translate(-158.495 -128.688)" fill="url(#t)"/><path d="M171.113,162.8c-1.257-1.516-.356-6.851,5.086-2.652,2.414,1.863,16.1,11.6,17.389,12.588a3.526,3.526,0,0,1,1.456,3.242c-.8,4.1-5.349,4.725-10.07.481C181.909,173.707,173.719,165.943,171.113,162.8Z" transform="translate(-156.486 -127.185)" fill="url(#u)"/><path d="M173.144,188.176c2.562-4.391,6.689-1.664,5.334,1.989-1.916,5.163-13.432,16.513-15.743,18.772-.3.3-.408.086-.521-.139-.328-.658-.655-1.186-.921-1.278a3.072,3.072,0,0,0-1.183-.051C162.813,203.968,170.662,192.429,173.144,188.176Z" transform="translate(-155.38 -130.066)" fill="url(#v)"/><path d="M194.88,175.3c5.908-1.769,10.744.65,9.514,4.663a5.227,5.227,0,0,1-3.6,3.129c-1.532.535-17.66,5.09-20.535,6.1-6.48,2.281-5.751-3.168-4.02-4.107C180.607,182.712,191.66,176.259,194.88,175.3Z" transform="translate(-156.952 -128.886)" fill="url(#w)"/><path d="M204.625,131.74c-.408,1-.314,1.983.209,2.2s1.278-.423,1.686-1.423.315-1.983-.208-2.2S205.034,130.74,204.625,131.74Z" transform="translate(-160.043 -124.204)" fill="#FFBA9B"/><g transform="translate(0 0.006)"><g clip-path="url(#x)"><path d="M235.672,115.587c-7.188-3.757-19.653-2.2-24.435,5.038-4.882,7.39-.05,13.264-8.722,22.87-6.859,7.6-5.5,18.832-6.941,26.876-1.583,8.833-15.578,4.091-21.226,14.76-8.682,16.393,8.691,28.2,19.409,35.767,11,7.769,19.092-8.478,31.445-19.374,9.121-8.045,15.822-17.257,14.2-25.881-2.332-12.385-14.233-4.479-7.142-16.188,4.244-7.005,8.239-20.208-3.367-21.814S246.025,121,235.672,115.587Z" transform="translate(-156.632 -122.455)" opacity="0.3" fill="url(#y)"/></g></g></g></g></g></svg>